<?xml version="1.0" standalone="no"?>
<!DOCTYPE svg PUBLIC "-//W3C//DTD SVG 20010904//EN"
 "http://www.w3.org/TR/2001/REC-SVG-20010904/DTD/svg10.dtd">
<svg version="1.0" xmlns="http://www.w3.org/2000/svg"
 width="500.000000pt" height="500.000000pt" viewBox="0 0 500.000000 500.000000"
 preserveAspectRatio="xMidYMid meet">

<g transform="translate(0.000000,500.000000) scale(0.100000,-0.100000)"
fill="#000000" stroke="none">
<path d="M4175 3408 c-38 -69 -157 -247 -186 -278 -13 -13 -31 -37 -39 -52
-37 -67 -245 -285 -396 -415 -85 -73 -192 -152 -297 -219 -56 -37 -113 -73
-127 -83 -31 -20 -107 -57 -227 -110 -183 -82 -281 -118 -398 -149 -118 -30
-311 -78 -350 -86 -15 -3 -14 -4 6 -5 23 -1 28 -9 53 -83 15 -46 36 -100 46
-120 l18 -36 -71 -14 c-116 -21 -585 -18 -712 6 -163 30 -387 92 -498 137 -27
11 -52 19 -57 17 -4 -2 18 -57 51 -123 32 -66 58 -125 58 -131 1 -6 28 -51 61
-102 69 -105 302 -345 420 -433 42 -31 135 -84 210 -119 74 -35 140 -66 145
-70 21 -15 204 -71 300 -91 157 -34 435 -38 603 -9 70 12 170 36 222 52 114
37 352 146 435 201 86 57 253 205 322 284 32 38 63 71 69 75 48 31 230 372
279 523 68 210 98 475 76 688 -13 118 -47 280 -78 368 l-16 46 37 87 c29 66
96 273 96 293 0 2 -6 3 -13 3 -8 0 -26 -23 -42 -52z"/>
<path d="M2043 2003 c9 -2 25 -2 35 0 9 3 1 5 -18 5 -19 0 -27 -2 -17 -5z"/>
<path d="M1963 1993 c9 -2 23 -2 30 0 6 3 -1 5 -18 5 -16 0 -22 -2 -12 -5z"/>
</g>
</svg>
