<svg xmlns="http://www.w3.org/2000/svg" version="1.0" width="225.000000" height="225.000000" preserveAspectRatio="xMidYMid meet" style=""><rect id="backgroundrect" width="100%" height="100%" x="0" y="0" fill="none" stroke="none"/>


<g class="currentLayer" style=""><title>Layer 1</title><g transform="translate(0,225) scale(0.10000000149011612,-0.10000000149011612) " fill="#990000" stroke="none" id="svg_1" class="selected" fill-opacity="1">
<path d="M985 2103 c-89 -14 -201 -50 -290 -92 -97 -47 -167 -91 -120 -76 10 3 40 9 65 12 25 3 72 18 105 33 134 62 241 85 385 84 146 -1 319 -42 400 -95 8 -5 23 -12 33 -15 9 -4 17 -10 17 -15 0 -5 7 -9 15 -9 8 0 15 -7 15 -15 0 -12 -5 -13 -17 -7 -10 5 -36 10 -58 10 -31 1 -44 -4 -62 -25 -18 -20 -33 -26 -67 -27 -24 -1 -43 -3 -41 -6 2 -3 -20 -3 -47 -1 -39 2 -53 -1 -60 -13 -7 -13 -28 -16 -112 -16 -98 0 -104 1 -122 25 -10 13 -24 27 -31 29 -7 3 -4 -8 8 -23 12 -16 18 -34 15 -40 -4 -6 -39 -11 -84 -11 -67 0 -186 -21 -201 -35 -11 -12 8 -13 46 -4 59 13 282 19 289 8 3 -5 13 -9 22 -9 26 0 78 -52 96 -94 16 -38 22 -116 9 -116 -3 0 -15 8 -26 17 -24 23 -137 29 -238 14 -277 -44 -510 -193 -653 -419 -31 -49 -56 -96 -56 -105 0 -9 -4 -18 -9 -21 -17 -11 -44 -134 -39 -183 5 -54 67 -192 125 -280 92 -140 261 -282 419 -354 130 -59 242 -82 399 -82 191 -1 310 26 469 104 122 61 245 158 319 254 21 27 12 20 -28 -21 -47 -48 -83 -72 -165 -112 -126 -60 -260 -122 -267 -122 -3 0 21 18 53 40 78 53 161 126 152 135 -4 4 -22 -2 -40 -13 -88 -55 -242 -116 -343 -136 -174 -35 -310 -21 -445 42 l-35 17 40 2 c198 12 380 44 465 80 123 53 250 131 250 153 0 7 -6 7 -17 1 -131 -72 -366 -118 -549 -108 -177 10 -354 69 -421 140 l-28 29 55 -7 c30 -5 123 -8 205 -7 220 0 456 51 618 134 62 31 67 53 5 24 -18 -9 -78 -28 -133 -42 -91 -25 -117 -27 -290 -28 -147 -1 -207 3 -265 16 -155 36 -243 82 -324 168 -67 71 -61 83 25 56 151 -49 442 -64 629 -33 274 47 541 170 689 318 148 147 212 313 181 464 -11 55 -19 66 -82 128 -123 121 -287 214 -457 259 -75 20 -322 33 -396 21z" id="svg_2" fill="#990000" fill-opacity="1"/>
<path d="M773 1963 c9 -2 23 -2 30 0 6 3 -1 5 -18 5 -16 0 -22 -2 -12 -5z" id="svg_3" fill="#990000" fill-opacity="1"/>
<path d="M940 1910 c8 -5 20 -10 25 -10 6 0 3 5 -5 10 -8 5 -19 10 -25 10 -5 0 -3 -5 5 -10z" id="svg_4" fill="#990000" fill-opacity="1"/>
</g></g></svg>