<?xml version="1.0" standalone="no"?>
<!DOCTYPE svg PUBLIC "-//W3C//DTD SVG 20010904//EN"
 "http://www.w3.org/TR/2001/REC-SVG-20010904/DTD/svg10.dtd">
<svg version="1.0" xmlns="http://www.w3.org/2000/svg"
 width="150.000000pt" height="150.000000pt" viewBox="0 0 150.000000 150.000000"
 preserveAspectRatio="xMidYMid meet">

<g transform="translate(0.000000,150.000000) scale(0.100000,-0.100000)"
fill="#000000" stroke="none">
<path d="M587 1478 c-45 -24 -40 -38 13 -38 55 0 89 -15 138 -63 45 -44 53
-72 25 -92 -15 -11 -13 -13 16 -20 67 -14 125 -106 106 -166 -8 -23 -2 -24
-130 11 -240 66 -569 -61 -712 -276 -41 -60 -43 -67 -43 -137 0 -54 4 -78 15
-87 8 -7 15 -18 15 -25 0 -26 50 -167 71 -203 102 -165 259 -292 419 -337 36
-10 72 -24 81 -32 11 -9 48 -13 120 -13 85 0 112 4 144 20 22 11 46 20 55 20
27 1 154 49 182 70 15 11 30 20 33 20 11 0 143 121 149 135 7 19 -34 4 -77
-29 -36 -27 -132 -62 -192 -70 -22 -4 -51 -10 -65 -16 -69 -25 -302 -41 -315
-20 -3 6 4 11 17 11 136 8 308 69 308 110 0 4 -66 5 -147 2 -130 -5 -160 -3
-246 17 -111 25 -237 83 -281 129 l-30 31 25 0 c13 0 48 -7 76 -14 94 -25 289
-39 386 -28 129 14 128 28 -3 36 -202 12 -374 69 -488 163 -41 34 -92 101 -92
123 0 15 32 12 56 -4 27 -19 220 -82 297 -97 101 -20 326 -15 437 9 180 39
286 96 393 211 87 95 108 188 63 274 -96 180 -283 320 -484 362 -18 4 -36 13
-39 21 -4 11 -31 14 -132 13 -104 -1 -133 -5 -164 -21z"/>
</g>
</svg>
